<svg width="25" height="24" viewBox="0 0 25 24" fill="none" xmlns="http://www.w3.org/2000/svg">
<path d="M24.114 12.004C24.1153 10.0078 23.6175 8.0429 22.6656 6.28726C21.7136 4.53162 20.3377 3.04079 18.6626 1.94987C16.9874 0.858962 15.0659 0.20246 13.0723 0.0398643C11.0786 -0.122731 9.07583 0.213722 7.2454 1.01873C5.41497 1.82374 3.81477 3.07185 2.58984 4.64996C1.3649 6.22806 0.553953 8.08626 0.230483 10.0562C-0.092986 12.0261 0.0812519 14.0454 0.737406 15.9311C1.39356 17.8168 2.51089 19.5093 3.98812 20.8552C4.02864 20.9025 4.07529 20.9442 4.12683 20.9792C6.32236 22.9252 9.15691 24.0001 12.0934 24C15.03 23.9999 17.8645 22.925 20.0599 20.9788C20.111 20.944 20.1573 20.9027 20.1976 20.8558C21.4319 19.7337 22.4179 18.3668 23.0923 16.8425C23.7667 15.3183 24.1147 13.6703 24.114 12.004ZM1.48649 12.004C1.48517 10.2764 1.90763 8.57471 2.71698 7.04751C3.52633 5.52031 4.69798 4.21403 6.12963 3.24269C7.56129 2.27135 9.20943 1.66448 10.9302 1.47506C12.651 1.28563 14.392 1.51942 16.0014 2.156C17.6108 2.79259 19.0396 3.81262 20.163 5.12705C21.2865 6.44149 22.0705 8.01037 22.4465 9.69674C22.8226 11.3831 22.7793 13.1357 22.3204 14.8015C21.8615 16.4674 21.0011 17.9958 19.8141 19.2534C18.7027 17.5295 17.042 16.2292 15.0996 15.5623C16.0679 14.9183 16.8028 13.9805 17.1958 12.8876C17.5888 11.7946 17.6189 10.6045 17.2818 9.49309C16.9447 8.38172 16.2582 7.40807 15.3238 6.71608C14.3894 6.0241 13.2567 5.65049 12.0931 5.65049C10.9296 5.65049 9.79685 6.0241 8.86246 6.71608C7.92806 7.40807 7.24157 8.38172 6.90446 9.49309C6.56735 10.6045 6.59751 11.7946 6.99048 12.8876C7.38345 13.9805 8.11837 14.9183 9.08662 15.5623C7.14427 16.2292 5.48356 17.5294 4.3722 19.2534C2.51722 17.2938 1.48461 14.6997 1.48649 12.004ZM8.08618 11.0631C8.08618 10.2723 8.32118 9.49918 8.76147 8.8416C9.20176 8.18402 9.82756 7.6715 10.5597 7.36885C11.2919 7.0662 12.0976 6.98701 12.8749 7.1413C13.6521 7.29559 14.3661 7.67643 14.9265 8.23565C15.4869 8.79488 15.8685 9.50738 16.0231 10.283C16.1777 11.0587 16.0984 11.8627 15.7951 12.5934C15.4918 13.324 14.9782 13.9486 14.3193 14.3879C13.6603 14.8273 12.8856 15.0618 12.0931 15.0618C11.0308 15.0606 10.0123 14.6389 9.26113 13.8893C8.50994 13.1397 8.08739 12.1233 8.08618 11.0631ZM5.4278 20.2311C6.12001 19.0845 7.09747 18.136 8.26531 17.4775C9.43315 16.8191 10.7517 16.473 12.0931 16.473C13.4344 16.473 14.753 16.8191 15.9208 17.4775C17.0887 18.136 18.0661 19.0845 18.7584 20.2311C16.8732 21.7563 14.52 22.5887 12.0931 22.5887C9.66615 22.5887 7.31296 21.7563 5.4278 20.2311Z" fill="black"/>
</svg>
