<svg width="16" height="20" viewBox="0 0 16 20" fill="none" xmlns="http://www.w3.org/2000/svg">
<path d="M0 2.50004C0 1.83699 0.280951 1.20109 0.781048 0.732245C1.28115 0.263396 1.95942 0 2.66667 0L13.3333 0C14.0406 0 14.7189 0.263396 15.219 0.732245C15.719 1.20109 16 1.83699 16 2.50004V19.3753C15.9999 19.4884 15.9672 19.5993 15.9052 19.6963C15.8432 19.7932 15.7543 19.8726 15.648 19.926C15.5417 19.9794 15.4219 20.0047 15.3015 19.9993C15.181 19.9939 15.0644 19.958 14.964 19.8953L8 16.3765L1.036 19.8953C0.935607 19.958 0.818974 19.9939 0.698522 19.9993C0.57807 20.0047 0.458311 19.9794 0.351999 19.926C0.245688 19.8726 0.156805 19.7932 0.0948188 19.6963C0.032832 19.5993 6.22939e-05 19.4884 0 19.3753V2.50004ZM2.66667 1.25002C2.31304 1.25002 1.97391 1.38172 1.72386 1.61614C1.47381 1.85057 1.33333 2.16851 1.33333 2.50004V18.2078L7.63067 15.1052C7.74008 15.037 7.86857 15.0006 8 15.0006C8.13143 15.0006 8.25992 15.037 8.36933 15.1052L14.6667 18.2078V2.50004C14.6667 2.16851 14.5262 1.85057 14.2761 1.61614C14.0261 1.38172 13.687 1.25002 13.3333 1.25002H2.66667Z" fill="white"/>
</svg>
